<?xml version="1.0" encoding="UTF-8"?>
<!-- Generator: visioncortex VTracer 0.6.3 -->
<svg version="1.1" xmlns="http://www.w3.org/2000/svg" width="1280" height="249">
<path d="M0 0 C4.57 -0.14 9.14 -0.25 13.71 -0.32 C15.27 -0.35 16.82 -0.39 18.37 -0.44 C32.94 -0.9 32.94 -0.9 37.42 2.7 C39.84 5.23 41.51 8.13 43.07 11.25 C44.55 14.02 46.58 16.26 48.62 18.62 C50.08 20.42 51.54 22.21 53 24 C54.42 25.73 55.83 27.46 57.25 29.19 C59.83 32.34 62.4 35.49 64.96 38.65 C65.75 39.62 65.75 39.62 66.55 40.61 C67.65 41.96 68.74 43.31 69.83 44.65 C72.8 48.3 75.77 51.94 78.77 55.56 C79.39 56.31 80.02 57.06 80.66 57.84 C81.85 59.28 83.05 60.72 84.24 62.15 C86.87 65.32 89.39 68.5 91.75 71.87 C93.99 74.99 95.46 76.55 99 78 C101.23 77.94 101.23 77.94 103 77 C104.47 74.07 104.18 71.1 104.21 67.89 C104.22 67.16 104.23 66.42 104.24 65.67 C104.27 63.25 104.29 60.82 104.32 58.4 C104.34 56.72 104.36 55.04 104.38 53.36 C104.43 48.94 104.48 44.52 104.53 40.1 C104.58 35.58 104.64 31.07 104.69 26.56 C104.8 17.71 104.9 8.85 105 0 C113.58 0 122.16 0 131 0 C131 40.92 131 81.84 131 124 C103 124 103 124 98 122 C96.19 120.03 94.59 118.13 93 116 C92.58 115.45 92.15 114.91 91.72 114.34 C89.99 112.1 88.28 109.85 86.57 107.59 C84.52 104.89 82.46 102.34 80 100 C78.65 98.35 77.32 96.68 76 95 C75.01 93.76 75.01 93.76 74 92.5 C68 85 68 85 66.06 82.56 C62.98 78.74 59.83 74.98 56.66 71.23 C53.51 67.44 50.54 63.52 47.57 59.59 C45.52 56.89 43.46 54.35 41 52 C40.36 51.2 39.72 50.39 39.06 49.56 C37.07 46.97 37.07 46.97 34.75 44.81 C33 43 33 43 33 41 C29.54 41.5 29.54 41.5 26 42 C24.79 45.8 24.83 49.58 24.79 53.52 C24.78 54.65 24.78 54.65 24.76 55.8 C24.73 58.28 24.71 60.76 24.68 63.23 C24.66 64.96 24.64 66.68 24.62 68.4 C24.57 72.92 24.52 77.44 24.47 81.97 C24.42 86.59 24.36 91.21 24.31 95.82 C24.2 104.88 24.1 113.94 24 123 C20.19 123.03 16.38 123.05 12.56 123.06 C11.47 123.07 10.39 123.08 9.26 123.09 C8.23 123.09 7.19 123.09 6.13 123.1 C5.17 123.1 4.21 123.11 3.22 123.11 C1 123 1 123 0 122 C-0.1 120.42 -0.12 118.83 -0.12 117.25 C-0.12 116.22 -0.12 115.19 -0.12 114.13 C-0.12 113 -0.12 111.86 -0.11 110.69 C-0.11 109.5 -0.11 108.31 -0.11 107.08 C-0.11 103.81 -0.11 100.54 -0.1 97.26 C-0.1 93.85 -0.09 90.43 -0.09 87.01 C-0.09 80.54 -0.08 74.07 -0.07 67.59 C-0.06 60.22 -0.06 52.85 -0.05 45.49 C-0.04 30.32 -0.02 15.16 0 0 Z " fill="#FBFDFD" transform="translate(1149,63)"/>
<path d="M0 0 C5.66 -0.25 11.31 -0.43 16.97 -0.55 C18.89 -0.6 20.81 -0.67 22.73 -0.75 C39.53 -1.5 39.53 -1.5 44.55 2.2 C47.08 4.68 49.15 6.98 51 10 C51 10.66 51 11.32 51 12 C51.59 12.25 52.18 12.51 52.79 12.77 C55.23 14.13 56.52 15.51 58.29 17.65 C61.81 21.81 65.54 25.69 69.4 29.54 C70.08 30.22 70.77 30.9 71.47 31.6 C72.9 33.03 74.33 34.46 75.76 35.89 C77.93 38.06 80.1 40.23 82.26 42.4 C83.66 43.8 85.06 45.2 86.46 46.6 C87.42 47.56 87.42 47.56 88.39 48.53 C92.24 52.36 96.2 55.99 100.31 59.52 C102.24 61.21 104 63 105.75 64.88 C111.46 70.69 119.64 78.95 128.12 79.44 C131.92 79.36 133.9 78.73 136.87 76.37 C137.56 75.82 138.25 75.28 138.96 74.71 C142.05 72.12 145.02 69.41 147.94 66.62 C149.26 65.38 150.58 64.13 151.89 62.89 C152.57 62.25 153.25 61.6 153.94 60.94 C155.96 59.04 157.98 57.15 160.01 55.27 C170.94 45.11 181.5 34.61 192 24.01 C193.22 22.79 194.46 21.58 195.73 20.4 C197.51 18.45 197.65 16.57 198 14 C198.99 14.5 198.99 14.5 200 15 C200.68 14.32 201.36 13.64 202.06 12.94 C205.37 9.63 208.69 6.31 212 3 C212.45 2.48 212.89 1.96 213.35 1.42 C215.4 -0.34 216.35 -0.37 219.01 -0.34 C219.81 -0.34 220.61 -0.34 221.44 -0.34 C222.3 -0.32 223.16 -0.31 224.04 -0.29 C225.37 -0.29 225.37 -0.29 226.72 -0.28 C229.54 -0.26 232.37 -0.23 235.19 -0.19 C237.1 -0.17 239.01 -0.16 240.93 -0.15 C245.62 -0.11 250.31 -0.06 255 0 C255.33 1.32 255.66 2.64 256 4 C255.01 4.33 254.02 4.66 253 5 C252.67 5.66 252.34 6.32 252 7 C251.67 7.66 251.34 8.32 251 9 C250.01 9.33 249.02 9.66 248 10 C247.33 11.33 246.66 12.66 246 14 C244.46 15.69 242.87 17.32 241.24 18.92 C240.77 19.39 240.3 19.85 239.82 20.33 C238.32 21.81 236.82 23.28 235.31 24.75 C226.61 33.27 226.61 33.27 218.49 42.33 C216.88 44.13 215.16 45.64 213.31 47.19 C209.8 50.17 206.7 53.43 203.62 56.84 C197.45 63.59 191.05 70.1 184.57 76.56 C182.73 78.39 180.9 80.23 179.07 82.07 C173.72 87.42 168.38 92.7 162.61 97.6 C160.27 99.63 158.14 101.84 156 104.06 C147.08 113.02 139.89 118.15 126.94 118.19 C124.96 118.14 122.98 118.08 121 118 C121 117.34 121 116.68 121 116 C120.07 116 119.14 116 118.19 116 C109.45 114.66 102.26 106.45 96.05 100.61 C95.4 100 94.75 99.39 94.07 98.77 C86.99 92.1 80.09 85.24 73.22 78.35 C71.87 77 70.52 75.65 69.16 74.3 C66.36 71.5 63.56 68.7 60.76 65.89 C57.2 62.32 53.62 58.75 50.05 55.18 C47.27 52.41 44.49 49.63 41.72 46.85 C40.4 45.53 39.08 44.22 37.76 42.9 C25.72 30.87 25.72 30.87 20.39 24.62 C18.35 22.25 16.16 20.05 13.94 17.84 C13.06 16.97 12.18 16.09 11.28 15.19 C10.38 14.3 9.48 13.41 8.56 12.5 C7.64 11.58 6.72 10.66 5.77 9.72 C3.51 7.48 1.26 5.24 -1 3 C-0.67 2.01 -0.34 1.02 0 0 Z " fill="#FBFDFD" transform="translate(1,131)"/>
<path d="M0 0 C0.8 -0.01 1.6 -0.03 2.42 -0.04 C10.6 0.1 16.38 3.19 22.31 8.75 C23.15 9.54 24 10.32 24.86 11.13 C27.95 14.12 30.99 17.14 33.98 20.23 C35.96 22.15 37.97 23.95 40.06 25.75 C44.13 29.3 47.98 33.03 51.8 36.85 C52.46 37.52 53.13 38.18 53.82 38.87 C55.21 40.27 56.61 41.66 58 43.06 C60.13 45.19 62.26 47.32 64.39 49.45 C65.76 50.81 67.12 52.17 68.48 53.54 C69.43 54.48 69.43 54.48 70.4 55.45 C73.62 58.68 76.57 61.96 79.38 65.56 C80.66 66.76 81.97 67.93 83.31 69.06 C87.98 73.07 92.16 77.32 96.22 81.93 C99.91 86.04 103.74 89.97 107.69 93.83 C108.23 94.37 108.78 94.9 109.34 95.45 C111.59 97.66 113.84 99.86 116.11 102.05 C117.79 103.68 119.46 105.32 121.12 106.96 C121.64 107.45 122.15 107.94 122.68 108.44 C125.61 111.34 127.04 113.41 127.38 117.56 C121.63 117.69 115.88 117.78 110.13 117.84 C108.18 117.86 106.22 117.9 104.27 117.94 C101.46 118 98.65 118.03 95.83 118.05 C94.96 118.08 94.09 118.1 93.19 118.13 C88.81 118.13 86.99 118.06 83.48 115.22 C82.44 113.91 82.44 113.91 81.38 112.56 C80.35 111.54 79.32 110.53 78.29 109.51 C77.19 108.42 76.1 107.34 75 106.25 C74.46 105.72 73.92 105.19 73.37 104.64 C70.53 101.82 67.81 98.94 65.21 95.9 C60.73 90.72 55.88 85.92 51.03 81.09 C49.44 79.5 47.85 77.91 46.27 76.32 C41.32 71.37 36.33 66.53 31.01 61.98 C28.86 60.11 26.86 58.11 24.88 56.06 C20.87 52.01 16.74 48.22 12.38 44.56 C11.73 43.98 11.08 43.4 10.41 42.8 C6.31 39.33 3.12 37.57 -2.34 37.99 C-11.61 40.32 -19.44 49.33 -25.94 55.9 C-28.54 58.48 -31.22 60.94 -33.95 63.39 C-40.98 69.78 -47.69 76.47 -54.39 83.2 C-56.45 85.26 -58.51 87.32 -60.58 89.38 C-61.91 90.71 -63.25 92.05 -64.58 93.39 C-65.49 94.29 -65.49 94.29 -66.41 95.21 C-71.45 100.27 -76.44 105.44 -80.54 111.29 C-83.11 114.66 -85.49 117.11 -89.77 118.02 C-96.07 118.69 -102.37 118.38 -108.69 118.12 C-110.62 118.08 -112.56 118.04 -114.49 118 C-119.2 117.9 -123.91 117.75 -128.62 117.56 C-128.96 116.9 -129.28 116.24 -129.62 115.56 C-123.49 108.29 -116.78 101.66 -110.01 94.98 C-105.53 90.55 -101.2 86.08 -97.15 81.25 C-95.11 78.99 -92.81 77.12 -90.46 75.19 C-88.64 73.57 -87.12 71.89 -85.55 70.02 C-81.06 64.84 -76.23 60.02 -71.38 55.18 C-70.4 54.2 -69.42 53.22 -68.44 52.24 C-66.4 50.2 -64.35 48.16 -62.31 46.12 C-59.71 43.52 -57.12 40.92 -54.52 38.32 C-52.5 36.3 -50.48 34.28 -48.46 32.26 C-47.04 30.85 -45.63 29.43 -44.21 28.01 C-39.68 23.5 -35.11 19.11 -30.24 14.95 C-28.18 13.18 -26.23 11.3 -24.25 9.44 C-16.46 2.67 -10.3 0.13 0 0 Z " fill="#FBFDFD" transform="translate(129.625,-0.5625)"/>
<path d="M0 0 C11.66 -0.05 23.32 -0.08 34.97 -0.1 C40.39 -0.11 45.8 -0.13 51.22 -0.15 C56.45 -0.17 61.68 -0.18 66.91 -0.19 C68.9 -0.19 70.89 -0.2 72.88 -0.21 C103.53 -0.37 103.53 -0.37 113.93 8.68 C122.8 17.86 124.71 28.08 124.52 40.41 C124.16 49.34 122.52 55.54 116.44 62.25 C109.25 68.84 101.77 72.68 92 73 C94.67 78.33 98.08 82.64 101.94 87.18 C106.39 92.42 110.56 97.85 114.72 103.33 C116.04 105.06 117.38 106.78 118.71 108.5 C119.16 109.08 119.6 109.65 120.06 110.24 C121.3 111.84 122.54 113.43 123.77 115.03 C125.96 117.95 127.98 120.95 130 124 C125.8 123.93 121.6 123.84 117.4 123.74 C115.97 123.7 114.55 123.68 113.12 123.65 C111.06 123.62 109.01 123.57 106.95 123.51 C105.72 123.49 104.48 123.46 103.21 123.43 C99.84 122.98 98.37 122.41 96 120 C96 119.34 96 118.68 96 118 C95.34 118 94.68 118 94 118 C93.6 117.1 93.6 117.1 93.19 116.19 C91.99 113.97 90.8 112.73 89 111 C86.59 108.09 84.32 105.09 82.06 102.06 C79.48 98.61 76.78 95.3 74 92 C71.99 89.51 70.01 87.02 68.12 84.44 C63.12 78.7 58.39 77.24 51.05 76.72 C48.88 76.6 46.7 76.5 44.53 76.39 C39.1 76.1 39.1 76.1 38 75 C37.82 72.75 37.73 70.5 37.69 68.25 C37.63 66.4 37.63 66.4 37.57 64.52 C38.07 60.42 39.07 58.85 42 56 C44.73 55.09 46.38 54.87 49.19 54.84 C50.45 54.83 50.45 54.83 51.74 54.81 C53.1 54.8 53.1 54.8 54.49 54.79 C56.41 54.76 58.33 54.73 60.26 54.7 C63.28 54.66 66.31 54.63 69.34 54.6 C72.27 54.57 75.19 54.53 78.11 54.48 C79.01 54.47 79.91 54.47 80.84 54.47 C87.37 54.34 91.46 52.91 96.75 48.94 C99.87 44.86 100.98 41.14 101 36 C100.05 32.75 98.62 29.96 97 27 C96.5 25.52 96.5 25.52 96 24 C94.08 22.83 94.08 22.83 92 22 C91.34 21.67 90.68 21.34 90 21 C88.11 20.89 86.22 20.84 84.33 20.82 C83.14 20.81 81.95 20.8 80.73 20.78 C79.44 20.78 78.15 20.77 76.82 20.76 C74.84 20.75 74.84 20.75 72.82 20.74 C70.03 20.72 67.23 20.71 64.43 20.7 C60.85 20.69 57.27 20.66 53.69 20.62 C50.94 20.59 48.19 20.59 45.43 20.58 C43.47 20.57 41.51 20.55 39.55 20.52 C37.76 20.53 37.76 20.53 35.93 20.53 C34.35 20.52 34.35 20.52 32.75 20.51 C29.31 21.12 28.16 22.32 26 25 C24.3 28.4 24.82 32.29 24.79 36.04 C24.78 37.44 24.78 37.44 24.76 38.88 C24.73 41.98 24.71 45.09 24.68 48.2 C24.66 50.34 24.64 52.49 24.62 54.64 C24.57 60.31 24.52 65.97 24.47 71.64 C24.42 77.42 24.36 83.19 24.31 88.97 C24.2 100.32 24.1 111.66 24 123 C20.02 123.03 16.04 123.05 12.06 123.06 C10.36 123.08 10.36 123.08 8.62 123.09 C7.54 123.09 6.46 123.09 5.35 123.1 C3.85 123.11 3.85 123.11 2.32 123.11 C0 123 0 123 -1 122 C-1.1 119.63 -1.13 117.29 -1.12 114.92 C-1.12 114.17 -1.12 113.43 -1.12 112.66 C-1.11 110.17 -1.1 107.68 -1.09 105.18 C-1.09 103.42 -1.09 101.66 -1.08 99.9 C-1.03 80.55 -0.79 61.2 -0.54 41.85 C-0.47 37.1 -0.42 32.35 -0.36 27.6 C-0.24 18.4 -0.12 9.2 0 0 Z " fill="#FBFDFD" transform="translate(355,63)"/>
<path d="M0 0 C1.13 0.01 2.25 0.01 3.41 0.02 C4.63 0.02 5.84 0.02 7.09 0.03 C8.37 0.03 9.65 0.04 10.97 0.05 C12.25 0.06 13.54 0.06 14.86 0.06 C18.04 0.08 21.23 0.09 24.41 0.11 C29.27 9.07 33.93 18.09 38.28 27.3 C43.4 38.13 48.73 48.84 54.1 59.55 C54.5 60.35 54.9 61.15 55.31 61.98 C58.37 68.08 61.43 74.18 64.5 80.28 C68.82 88.9 73.11 97.54 77.28 106.24 C77.99 107.7 77.99 107.7 78.71 109.19 C80.91 113.77 82.98 118.23 84.41 123.11 C75.4 123.75 66.45 124.29 57.41 124.11 C57.41 123.45 57.41 122.79 57.41 122.11 C56.75 122.11 56.09 122.11 55.41 122.11 C54.85 120.93 54.29 119.74 53.72 118.52 C52.95 116.88 52.18 115.25 51.41 113.61 C51.05 112.84 50.68 112.07 50.31 111.27 C46.83 103.91 43.18 96.63 39.53 89.35 C37.98 86.25 36.43 83.15 34.89 80.05 C33.27 76.79 31.64 73.53 30.02 70.28 C29.19 68.62 28.36 66.96 27.54 65.3 C22.99 56.15 18.42 47.03 13.41 38.11 C10.48 38.38 10.48 38.38 7.41 39.11 C5.78 41.53 4.67 43.54 3.53 46.18 C2.86 47.63 2.19 49.09 1.52 50.54 C1.18 51.29 0.84 52.04 0.48 52.82 C-0.59 55.12 -1.75 57.36 -2.95 59.59 C-3.33 60.31 -3.71 61.03 -4.1 61.76 C-4.83 63.14 -5.58 64.52 -6.33 65.88 C-8.3 69.53 -8.3 69.53 -7.93 73.5 C-6.67 75.24 -6.67 75.24 -4.59 76.11 C-2.97 76.24 -1.35 76.32 0.28 76.36 C1.73 76.41 1.73 76.41 3.21 76.46 C5.25 76.52 7.29 76.58 9.33 76.63 C10.3 76.67 11.28 76.7 12.28 76.73 C13.61 76.77 13.61 76.77 14.97 76.81 C17.6 77.14 19.2 77.65 21.41 79.11 C22.56 80.75 22.56 80.75 23.48 82.67 C23.82 83.37 24.16 84.06 24.51 84.78 C24.84 85.51 25.18 86.24 25.53 86.99 C25.88 87.71 26.23 88.43 26.58 89.17 C27.23 90.52 27.87 91.87 28.51 93.22 C29.45 95.2 30.43 97.16 31.41 99.11 C30.81 99.11 30.2 99.1 29.58 99.09 C23.3 99.03 17.03 98.98 10.75 98.95 C8.41 98.93 6.06 98.91 3.72 98.89 C0.35 98.85 -3.02 98.83 -6.39 98.82 C-7.43 98.81 -8.48 98.79 -9.55 98.77 C-14.79 98.77 -18.29 98.8 -22.59 102.11 C-23.25 102.11 -23.91 102.11 -24.59 102.11 C-24.83 102.93 -25.06 103.75 -25.3 104.59 C-26.86 108.84 -28.95 112.58 -31.22 116.49 C-33.38 120.26 -33.38 120.26 -35.59 124.11 C-44.5 123.78 -53.41 123.45 -62.59 123.11 C-62.59 119.78 -61.9 118.32 -60.47 115.35 C-60.01 114.41 -59.56 113.46 -59.09 112.48 C-58.59 111.48 -58.1 110.47 -57.59 109.43 C-57.09 108.39 -56.59 107.35 -56.07 106.28 C-52.29 98.49 -48.45 90.73 -44.54 83 C-42.88 79.71 -41.24 76.41 -39.59 73.11 C-37.63 69.19 -35.67 65.27 -33.7 61.36 C-29.73 53.49 -25.88 45.57 -22.09 37.61 C-4.26 0.19 -4.26 0.19 0 0 Z " fill="#FBFDFD" transform="translate(1001.592041015625,62.886474609375)"/>
<path d="M0 0 C9.24 0 18.48 0 28 0 C33.26 9.87 38.42 19.71 43.1 29.87 C45.23 34.46 47.52 38.93 49.94 43.38 C53 48.99 55.79 54.7 58.5 60.5 C61.34 66.55 64.22 72.57 67.31 78.5 C67.63 79.12 67.94 79.73 68.26 80.37 C70.06 83.75 71.73 85.98 75 88 C78.21 86.66 79.61 85.55 81.19 82.46 C81.57 81.72 81.95 80.99 82.35 80.24 C82.75 79.44 83.15 78.64 83.56 77.81 C83.99 76.98 84.42 76.14 84.86 75.28 C88.73 67.69 92.39 59.99 96.03 52.28 C98.6 46.86 101.25 41.51 104.12 36.25 C107.58 29.9 110.71 23.42 113.77 16.87 C116.41 11.2 119.18 5.59 122 0 C126.29 -0.03 130.58 -0.05 134.88 -0.06 C136.71 -0.08 136.71 -0.08 138.58 -0.09 C140.33 -0.09 140.33 -0.09 142.12 -0.1 C143.74 -0.11 143.74 -0.11 145.39 -0.11 C148 0 148 0 150 1 C148.57 5.71 146.61 10 144.36 14.37 C143.64 15.79 142.92 17.22 142.19 18.65 C141.64 19.74 141.64 19.74 141.08 20.85 C139.41 24.17 137.79 27.53 136.17 30.88 C135.85 31.54 135.53 32.2 135.2 32.88 C134.54 34.25 133.88 35.62 133.22 36.99 C125.07 53.86 116.74 70.62 108.34 87.36 C107.98 88.08 107.61 88.81 107.24 89.55 C105.44 93.13 103.64 96.71 101.84 100.28 C98.06 107.78 94.39 115.31 91 123 C86.78 123.07 82.57 123.13 78.35 123.16 C76.91 123.18 75.48 123.2 74.04 123.23 C71.98 123.26 69.92 123.28 67.86 123.29 C66.61 123.31 65.37 123.32 64.09 123.34 C60.6 122.96 60.17 122.57 58 120 C56.61 117.48 55.31 114.97 54.05 112.39 C53.67 111.64 53.3 110.88 52.91 110.1 C51.71 107.67 50.51 105.24 49.31 102.81 C48.53 101.23 47.74 99.64 46.96 98.06 C45.39 94.91 43.84 91.76 42.28 88.61 C40.11 84.22 37.92 79.85 35.73 75.48 C32.74 69.52 29.84 63.53 27 57.5 C24.14 51.45 21.25 45.42 18.25 39.44 C17.95 38.84 17.65 38.24 17.34 37.62 C15.35 33.67 13.36 29.73 11.36 25.79 C10.06 23.24 8.77 20.68 7.48 18.12 C6.83 16.84 6.18 15.56 5.53 14.28 C4.61 12.47 3.69 10.66 2.78 8.86 C2.25 7.8 1.71 6.74 1.16 5.66 C0 3 0 3 0 0 Z " fill="#FBFDFD" transform="translate(637,63)"/>
<path d="M0 0 C4 0 4 0 6.25 1.99 C7.17 2.99 8.08 3.99 9 5 C10.28 6.3 11.56 7.59 12.85 8.88 C13.54 9.58 14.22 10.27 14.93 10.98 C15.99 12.04 15.99 12.04 17.06 13.12 C17.77 13.84 18.48 14.56 19.21 15.29 C19.89 15.98 20.58 16.67 21.29 17.38 C21.9 18.01 22.52 18.63 23.16 19.27 C24.99 21.07 24.99 21.07 27.23 22.6 C27.82 23.06 28.4 23.52 29 24 C29 24.66 29 25.32 29 26 C29.64 26.27 30.28 26.54 30.94 26.81 C33 28 33 28 34 31 C35.32 31.69 36.66 32.35 38 33 C39.46 34.49 39.46 34.49 40.94 36.31 C43.74 39.65 46.71 42.72 49.83 45.75 C64.55 60.08 64.55 60.08 65.25 69.31 C64.17 85.19 41.27 100.84 30.54 111.52 C28.06 114 25.58 116.47 23.1 118.95 C18.75 123.29 14.39 127.63 10.04 131.97 C8.62 133.38 7.24 134.82 5.88 136.28 C5.26 136.85 4.64 137.41 4 138 C1.75 137.75 1.75 137.75 0 137 C-0.05 131.8 -0.09 126.61 -0.11 121.41 C-0.12 119.64 -0.13 117.88 -0.15 116.11 C-0.18 113.57 -0.19 111.03 -0.2 108.48 C-0.21 107.7 -0.22 106.91 -0.23 106.09 C-0.23 102.26 -0.23 99.22 2 96 C3.42 94.61 3.42 94.61 5.19 93.19 C9.61 89.44 13.75 85.44 17.88 81.38 C18.54 80.73 19.21 80.08 19.9 79.42 C24.78 74.92 24.78 74.92 27 69 C24.35 62.46 18.97 57.57 14 52.75 C13.3 52.06 12.6 51.36 11.88 50.65 C8.39 47.21 4.84 44.05 1 41 C-0.67 37.67 -0.12 33.93 -0.1 30.27 C-0.1 29.41 -0.09 28.55 -0.09 27.66 C-0.09 24.9 -0.08 22.14 -0.06 19.38 C-0.06 17.51 -0.05 15.64 -0.05 13.77 C-0.04 9.18 -0.02 4.59 0 0 Z " fill="#FBFDFD" transform="translate(135,55)"/>
<path d="M0 0 C0.99 0.33 1.98 0.66 3 1 C3.33 6.32 3.56 11.63 3.71 16.95 C3.78 18.75 3.87 20.56 3.98 22.36 C4.95 38.1 4.95 38.1 0.22 43.99 C-2.44 46.83 -5.32 49.31 -8.39 51.7 C-10.27 53.17 -10.27 53.17 -12.8 55.85 C-15 58 -15 58 -17 58 C-17.25 58.54 -17.5 59.07 -17.75 59.62 C-19 62 -19 62 -21.19 64.94 C-23.24 67.75 -23.24 67.75 -22.87 70.41 C-21.79 73.62 -20.34 75.12 -17.92 77.47 C-17.09 78.29 -16.26 79.11 -15.4 79.95 C-14.53 80.79 -13.65 81.63 -12.75 82.5 C-11.89 83.34 -11.03 84.18 -10.14 85.05 C-7.77 87.37 -5.39 89.69 -3 92 C2.96 97.78 2.96 97.78 3.11 102.81 C3.11 104.45 3.11 106.09 3.1 107.73 C3.1 108.59 3.09 109.45 3.09 110.34 C3.09 113.1 3.08 115.86 3.06 118.62 C3.06 120.49 3.05 122.36 3.05 124.23 C3.04 128.82 3.02 133.41 3 138 C-1.16 136.63 -3.54 134.8 -6.58 131.68 C-7.43 130.81 -8.28 129.95 -9.16 129.06 C-10.03 128.15 -10.91 127.25 -11.81 126.31 C-17.17 120.82 -22.5 115.42 -28.32 110.44 C-30.29 108.75 -32.16 107 -34 105.19 C-34.58 104.62 -35.16 104.06 -35.75 103.48 C-37 102 -37 102 -37 100 C-37.66 100 -38.32 100 -39 100 C-40.27 98.71 -40.27 98.71 -41.81 96.81 C-45.78 92.11 -50.13 87.84 -54.56 83.57 C-58.13 80.07 -60.71 77.53 -61.3 72.38 C-61.32 66.98 -61.3 63.48 -58 59 C-57.29 56.31 -57.29 56.31 -57 54 C-56.34 54.33 -55.68 54.66 -55 55 C-53.83 53.83 -52.67 52.67 -51.51 51.49 C-50.48 50.48 -49.43 49.48 -48.37 48.51 C-45.16 45.52 -43.27 43.6 -43 39 C-42.34 39.33 -41.68 39.66 -41 40 C-37.87 36.88 -34.75 33.74 -31.64 30.6 C-29.99 28.94 -28.34 27.28 -26.69 25.62 C-25.46 24.39 -25.46 24.39 -24.21 23.12 C-19.86 18.75 -15.44 14.55 -10.76 10.53 C-8.4 8.48 -6.19 6.29 -4 4.06 C-3.24 3.29 -2.47 2.52 -1.69 1.72 C-1.13 1.15 -0.57 0.59 0 0 Z " fill="#FBFDFD" transform="translate(119,55)"/>
<path d="M0 0 C3.98 -0.03 7.96 -0.05 11.94 -0.06 C13.07 -0.07 14.21 -0.08 15.38 -0.09 C16.46 -0.09 17.54 -0.09 18.65 -0.1 C20.15 -0.11 20.15 -0.11 21.68 -0.11 C24 0 24 0 25 1 C25.1 2.57 25.13 4.14 25.13 5.71 C25.13 6.73 25.13 7.74 25.14 8.79 C25.13 9.92 25.13 11.04 25.13 12.21 C25.13 13.38 25.13 14.56 25.13 15.78 C25.14 19.02 25.14 22.26 25.13 25.5 C25.13 28.89 25.13 32.27 25.14 35.66 C25.14 41.34 25.14 47.03 25.13 52.72 C25.12 59.3 25.13 65.88 25.13 72.47 C25.14 78.11 25.14 83.75 25.13 89.39 C25.13 92.77 25.13 96.14 25.14 99.52 C25.14 103.28 25.13 107.04 25.13 110.79 C25.13 111.92 25.13 113.05 25.14 114.21 C25.13 115.73 25.13 115.73 25.13 117.29 C25.13 118.18 25.13 119.07 25.13 119.99 C25 122 25 122 24 123 C22.3 123.1 20.6 123.13 18.91 123.13 C17.88 123.13 16.85 123.14 15.79 123.14 C14.16 123.13 14.16 123.13 12.5 123.12 C11.42 123.13 10.33 123.13 9.21 123.14 C8.18 123.14 7.15 123.13 6.09 123.13 C5.14 123.13 4.19 123.13 3.21 123.13 C1 123 1 123 0 122 C-0.1 120.42 -0.12 118.83 -0.12 117.25 C-0.12 116.22 -0.12 115.19 -0.12 114.13 C-0.12 113 -0.12 111.86 -0.11 110.69 C-0.11 109.5 -0.11 108.31 -0.11 107.08 C-0.11 103.81 -0.11 100.54 -0.1 97.26 C-0.1 93.85 -0.09 90.43 -0.09 87.01 C-0.09 80.54 -0.08 74.07 -0.07 67.59 C-0.06 60.22 -0.06 52.85 -0.05 45.49 C-0.04 30.32 -0.02 15.16 0 0 Z " fill="#FBFDFD" transform="translate(548,63)"/>
<path d="M0 0 C3.81 -0.03 7.62 -0.05 11.44 -0.06 C12.53 -0.07 13.61 -0.08 14.74 -0.09 C15.77 -0.09 16.81 -0.09 17.87 -0.1 C18.83 -0.1 19.79 -0.11 20.78 -0.11 C23 0 23 0 24 1 C24.1 2.59 24.12 4.19 24.12 5.79 C24.12 6.83 24.12 7.86 24.12 8.93 C24.12 10.08 24.12 11.22 24.11 12.4 C24.11 13.6 24.11 14.8 24.11 16.04 C24.11 19.34 24.11 22.64 24.1 25.94 C24.1 29.38 24.09 32.83 24.09 36.27 C24.09 42.8 24.08 49.33 24.07 55.85 C24.06 63.28 24.06 70.71 24.05 78.14 C24.04 93.43 24.02 108.71 24 124 C16.08 124 8.16 124 0 124 C-1.2 121.61 -1.13 120.14 -1.13 117.46 C-1.13 116.51 -1.14 115.55 -1.14 114.57 C-1.14 113.51 -1.13 112.45 -1.13 111.37 C-1.13 110.26 -1.14 109.14 -1.14 108 C-1.14 104.29 -1.13 100.58 -1.12 96.88 C-1.12 95.61 -1.12 94.34 -1.12 93.04 C-1.1 62.02 -0.58 31.01 0 0 Z " fill="#FBFDFD" transform="translate(851,63)"/>
<path d="M0 0 C0.99 0.33 1.98 0.66 3 1 C2.34 1 1.68 1 1 1 C0.67 1.66 0.34 2.32 0 3 C0 2.01 0 1.02 0 0 Z " fill="#FBFDFD" transform="translate(996,62)"/>
<path d="M0 0 C0.99 0.5 0.99 0.5 2 1 C1.34 1.66 0.68 2.32 0 3 C0 2.01 0 1.02 0 0 Z " fill="#FBFDFD" transform="translate(942,172)"/>
<path d="" fill="#FBFDFD" transform="translate(0,0)"/>
<path d="" fill="#FBFDFD" transform="translate(0,0)"/>
<path d="" fill="#FBFDFD" transform="translate(0,0)"/>
<path d="" fill="#FBFDFD" transform="translate(0,0)"/>
<path d="" fill="#FBFDFD" transform="translate(0,0)"/>
<path d="" fill="#FBFDFD" transform="translate(0,0)"/>
</svg>
